<?xml version="1.0" encoding="UTF-8"?>
<svg id="Layer_1" data-name="Layer 1" xmlns="http://www.w3.org/2000/svg" xmlns:xlink="http://www.w3.org/1999/xlink" viewBox="0 0 240.94 240.94">
  <defs>
    <style>
      .cls-1 {
        fill: url(#linear-gradient);
      }

      .cls-2 {
        fill: #ed772f;
      }
    </style>
    <linearGradient id="linear-gradient" x1="120.47" y1="212.44" x2="120.47" y2="28.5" gradientUnits="userSpaceOnUse">
      <stop offset="0" stop-color="#ea3323"/>
      <stop offset=".23" stop-color="#ed772f"/>
      <stop offset=".46" stop-color="#ffff54"/>
      <stop offset=".67" stop-color="#5fcffa"/>
      <stop offset="1" stop-color="#221f20"/>
    </linearGradient>
  </defs>
  <polygon class="cls-1" points="191.87 69.72 191.87 45.04 168.17 45.04 168.17 28.5 72.49 28.5 72.49 45.04 47.95 45.04 47.95 69.72 25.12 69.72 25.12 140.8 47.95 140.8 47.95 164.17 47.95 164.68 47.95 212.44 96.22 212.44 96.22 164.68 143.59 164.68 143.59 212.44 191.87 212.44 191.87 164.68 191.87 164.17 191.87 140.8 215.82 140.8 215.82 69.72 191.87 69.72"/>
  <g>
    <rect x="47.95" y="198.78" width="48.27" height="6.02"/>
    <rect x="143.59" y="198.78" width="48.27" height="6.02"/>
    <rect x="47.95" y="185.29" width="48.27" height="6.02"/>
    <rect x="143.59" y="185.29" width="48.27" height="6.02"/>
    <rect x="47.95" y="171.8" width="48.27" height="6.02"/>
    <rect x="143.59" y="171.8" width="48.27" height="6.02"/>
    <rect x="47.95" y="158.31" width="143.92" height="6.02"/>
    <rect x="47.95" y="146.01" width="143.92" height="6.02"/>
    <rect x="25.12" y="133.71" width="190.7" height="6.02"/>
    <rect x="25.12" y="121.41" width="190.7" height="6.02"/>
    <rect x="25.12" y="109.11" width="190.7" height="6.02"/>
    <rect x="25.12" y="96.81" width="190.7" height="6.02"/>
    <rect x="25.12" y="84.51" width="190.7" height="6.02"/>
    <rect x="25.12" y="72.2" width="190.7" height="6.02"/>
    <rect x="47.95" y="59.9" width="143.92" height="6.02"/>
    <rect x="47.95" y="47.6" width="143.92" height="6.02"/>
    <rect x="72.49" y="35.3" width="95.68" height="6.02"/>
  </g>
  <g>
    <rect class="cls-2" x="77.97" y="74.17" width="25.09" height="25.09"/>
    <rect class="cls-2" x="137.89" y="74.17" width="25.09" height="25.09"/>
  </g>
</svg>