<svg width="21" height="21" viewBox="0 0 21 21" fill="none" xmlns="http://www.w3.org/2000/svg">
<path d="M11.8249 3.32965C12.7639 2.38967 14.2867 2.38913 15.2263 3.32867L17.407 5.50934C18.3382 6.44092 18.3476 7.94866 17.4284 8.89215L9.34933 17.1812C8.73214 17.8145 7.88559 18.1723 7.00168 18.1724H4.59348C3.47439 18.1724 2.58004 17.2395 2.62668 16.1207L2.73019 13.6617C2.76484 12.8402 3.10655 12.0617 3.68723 11.48L11.8249 3.32965ZM17.9509 16.7955C18.313 16.7957 18.6062 17.0893 18.6062 17.4517C18.6062 17.8141 18.313 18.1077 17.9509 18.108H12.5945C12.2322 18.108 11.9382 17.8143 11.9382 17.4517C11.9382 17.0892 12.2322 16.7955 12.5945 16.7955H17.9509ZM4.61496 12.4078C4.26657 12.7568 4.06151 13.2245 4.04074 13.7173L3.93723 16.1754C3.92184 16.5482 4.22056 16.8589 4.59348 16.8589L7.0007 16.8599C7.53117 16.8599 8.04046 16.6452 8.41086 16.2652L14.1257 10.4L10.3698 6.6441L4.61496 12.4078ZM14.2986 4.25739C13.8714 3.83048 13.1794 3.83098 12.7527 4.25836L11.2976 5.71539L15.0417 9.45953L16.489 7.97516C16.9065 7.54635 16.9023 6.86145 16.4792 6.43805L14.2986 4.25739Z" fill="black"/>
</svg>
