<svg width="22" height="22" viewBox="0 0 22 22" fill="none" xmlns="http://www.w3.org/2000/svg">
<path fill-rule="evenodd" clip-rule="evenodd" d="M7.75 6.5C6.7835 6.5 6 5.7165 6 4.75V0H4.75C2.12665 0 0 2.12665 0 4.75V16.75C0 19.1182 1.73301 21.0815 4 21.4411V13.75C4 12.2312 5.23122 11 6.75 11H14.75C16.2688 11 17.5 12.2312 17.5 13.75V21.4411C19.767 21.0815 21.5 19.1182 21.5 16.75V7.99264C21.5 6.99808 21.1049 6.04425 20.4016 5.34099L16.159 1.09835C15.9581 0.89749 15.7369 0.721769 15.5 0.573212V4.75C15.5 5.7165 14.7165 6.5 13.75 6.5H7.75ZM14 0.0324853C13.8376 0.0109623 13.673 0 13.5074 0H7.5V4.75C7.5 4.88807 7.61193 5 7.75 5H13.75C13.8881 5 14 4.88807 14 4.75V0.0324853ZM5.5 21.5H16V13.75C16 13.0596 15.4404 12.5 14.75 12.5H6.75C6.05964 12.5 5.5 13.0596 5.5 13.75V21.5Z" fill="black"/>
</svg>
