<svg width="22" height="22" viewBox="0 0 22 22" fill="none" xmlns="http://www.w3.org/2000/svg">
<path d="M0.75 4.75C0.75 2.54086 2.54086 0.75 4.75 0.75H10.75H13.5074C14.303 0.75 15.0661 1.06607 15.6287 1.62868L19.8713 5.87132C20.4339 6.43393 20.75 7.19699 20.75 7.99264V10.75V16.75C20.75 18.9591 18.9591 20.75 16.75 20.75H4.75C2.54086 20.75 0.75 18.9591 0.75 16.75V4.75Z" stroke="black" stroke-width="1.5"/>
<path d="M4.75 13.75C4.75 12.6454 5.64543 11.75 6.75 11.75H14.75C15.8546 11.75 16.75 12.6454 16.75 13.75V20.75H4.75V13.75Z" stroke="black" stroke-width="1.5"/>
<path d="M6.75 0.75V4.75C6.75 5.30228 7.19772 5.75 7.75 5.75H13.75C14.3023 5.75 14.75 5.30228 14.75 4.75V0.75" stroke="black" stroke-width="1.5"/>
</svg>
