<svg width="25" height="25" viewBox="0 0 25 25" fill="none" xmlns="http://www.w3.org/2000/svg">
<path d="M10.9342 6.12639C9.25068 6.12639 7.88595 7.49112 7.88595 9.1746V10.283C7.88595 10.7422 8.25815 11.1144 8.71728 11.1144C9.17641 11.1144 9.54861 10.7422 9.54861 10.283V9.1746C9.54861 8.40938 10.1689 7.78905 10.9342 7.78905H12.3197V17.2108H10.9342C10.475 17.2108 10.1028 17.583 10.1028 18.0421C10.1028 18.5012 10.475 18.8734 10.9342 18.8734H15.3679C15.8271 18.8734 16.1993 18.5012 16.1993 18.0421C16.1993 17.583 15.8271 17.2108 15.3679 17.2108H13.9824V7.78905H15.3679C16.1331 7.78905 16.7535 8.40938 16.7535 9.1746V10.283C16.7535 10.7422 17.1257 11.1144 17.5848 11.1144C18.0439 11.1144 18.4161 10.7422 18.4161 10.283V9.1746C18.4161 7.49112 17.0514 6.12639 15.3679 6.12639H10.9342Z" fill="black"/>
<path fill-rule="evenodd" clip-rule="evenodd" d="M18.0986 1.82977C16.8326 1.69261 15.2369 1.69262 13.2012 1.69263H13.1009C11.0652 1.69262 9.46948 1.69261 8.20349 1.82977C6.91156 1.96974 5.86478 2.26051 4.97101 2.90986C4.42993 3.30298 3.9541 3.77881 3.56099 4.31989C2.91163 5.21365 2.62087 6.26044 2.4809 7.55237C2.34373 8.81836 2.34374 10.4141 2.34375 12.4498V12.5501C2.34374 14.5858 2.34373 16.1815 2.4809 17.4475C2.62087 18.7394 2.91163 19.7862 3.56099 20.6799C3.9541 21.221 4.42993 21.6969 4.97101 22.09C5.86478 22.7393 6.91156 23.0301 8.20349 23.1701C9.46946 23.3072 11.0651 23.3072 13.1008 23.3072H13.2012C15.2369 23.3072 16.8326 23.3072 18.0986 23.1701C19.3905 23.0301 20.4373 22.7393 21.3311 22.09C21.8721 21.6969 22.348 21.221 22.7411 20.6799C23.3905 19.7862 23.6812 18.7394 23.8212 17.4475C23.9583 16.1815 23.9583 14.5858 23.9583 12.5502V12.4497C23.9583 10.4141 23.9583 8.81834 23.8212 7.55237C23.6812 6.26044 23.3905 5.21365 22.7411 4.31989C22.348 3.77881 21.8721 3.30298 21.3311 2.90986C20.4373 2.26051 19.3905 1.96974 18.0986 1.82977ZM5.9483 4.25498C6.51139 3.84587 7.23212 3.6074 8.38258 3.48276C9.5486 3.35643 11.0543 3.35529 13.151 3.35529C15.2477 3.35529 16.7535 3.35643 17.9195 3.48276C19.07 3.6074 19.7907 3.84587 20.3538 4.25498C20.7537 4.54555 21.1054 4.89725 21.396 5.29718C21.8051 5.86027 22.0436 6.581 22.1682 7.73146C22.2945 8.89748 22.2957 10.4032 22.2957 12.4999C22.2957 14.5966 22.2945 16.1024 22.1682 17.2684C22.0436 18.4188 21.8051 19.1396 21.396 19.7027C21.1054 20.1026 20.7537 20.4543 20.3538 20.7449C19.7907 21.154 19.07 21.3924 17.9195 21.5171C16.7535 21.6434 15.2477 21.6446 13.151 21.6446C11.0543 21.6446 9.5486 21.6434 8.38258 21.5171C7.23212 21.3924 6.51139 21.154 5.9483 20.7449C5.54837 20.4543 5.19667 20.1026 4.90611 19.7027C4.497 19.1396 4.25853 18.4188 4.13388 17.2684C4.00755 16.1024 4.00641 14.5966 4.00641 12.4999C4.00641 10.4032 4.00755 8.89748 4.13388 7.73146C4.25853 6.581 4.497 5.86027 4.90611 5.29718C5.19667 4.89725 5.54837 4.54555 5.9483 4.25498Z" fill="black"/>
</svg>
