<svg width="16" height="18" viewBox="0 0 16 18" fill="none" xmlns="http://www.w3.org/2000/svg">
<path d="M1.7943 5.67366C1.05501 4.68793 1.75835 3.28125 2.99051 3.28125H12.7595C13.9917 3.28125 14.695 4.68793 13.9557 5.67365C13.4165 6.39261 13.125 7.26705 13.125 8.16574V13.7813C13.125 15.7142 11.558 17.2812 9.625 17.2812H6.125C4.192 17.2812 2.625 15.7142 2.625 13.7812V8.16574C2.625 7.26705 2.33352 6.39261 1.7943 5.67366Z" stroke="black" stroke-width="1.3125"/>
<path d="M9.625 12.9062L9.625 7.65625" stroke="black" stroke-width="1.3125" stroke-linecap="round" stroke-linejoin="round"/>
<path d="M6.125 12.9062L6.125 7.65625" stroke="black" stroke-width="1.3125" stroke-linecap="round" stroke-linejoin="round"/>
<path d="M11.375 3.28125L10.8989 1.85285C10.6607 1.13825 9.99192 0.65625 9.23867 0.65625H6.51133C5.75808 0.65625 5.08933 1.13825 4.85113 1.85285L4.375 3.28125" stroke="black" stroke-width="1.3125" stroke-linecap="round"/>
</svg>
